<?xml version="1.0" encoding="utf-8"?>
<!-- Generator: Adobe Illustrator 23.0.1, SVG Export Plug-In . SVG Version: 6.00 Build 0)  -->
<svg version="1.1" id="Layer_1" xmlns="http://www.w3.org/2000/svg" xmlns:xlink="http://www.w3.org/1999/xlink" x="0px" y="0px"
	 viewBox="0 0 78.6 93.4" style="enable-background:new 0 0 78.6 93.4;" xml:space="preserve">
<style type="text/css">
	.st0{fill:#41443B;}
	.st1{fill:#EAA18F;}
	.st2{fill:#609933;}
	.st3{fill:#C43A2C;}
	.st4{fill:none;}
	.st5{fill:#EFB4AC;}
	.st6{clip-path:url(#SVGID_1_);fill:#40A1C1;}
	.st7{clip-path:url(#SVGID_1_);}
	.st8{fill:#C2DBE0;}
	.st9{fill:#BFDAE1;}
	.st10{fill:#D3E7E6;}
	.st11{opacity:0.15;clip-path:url(#SVGID_1_);}
	.st12{fill:#D7EBE2;}
	.st13{fill:#F6B657;}
	.st14{fill:#543412;}
	.st15{fill:#FFFBE4;}
	.st16{opacity:0.11;fill:#42443B;}
	.st17{fill:#D8ECE3;}
	.st18{fill:#F9B858;}
	.st19{fill:#F7C179;}
	.st20{fill:#41A2C2;}
	.st21{fill:none;stroke:#8DB9C5;stroke-miterlimit:10;}
	.st22{fill:#368499;}
</style>
<g>
	<path id="XMLID_78_" class="st19" d="M26.2,54c-4.1-10.1-4.9-21-2.1-31.6c1.9-7.1,5.3-13.7,10-19.3c-1.3,0.4-2.6,0.9-3.9,1.4
		C7.5,13.8-3.4,39.7,5.9,62.3c4.5,11,13,19.5,23.9,24.1c10.9,4.6,23,4.6,33.9,0.1c1.3-0.5,2.5-1.1,3.8-1.8
		c-7.3-0.7-14.4-3.1-20.7-6.8C37.5,72.4,30.3,64.1,26.2,54z"/>
	<polygon id="XMLID_16_" class="st8" points="49,50 47,57.3 54.1,54.4 60.5,58.6 59.9,51 65.8,46.2 58.4,44.4 55.7,37.3 51.7,43.8 
		44.1,44.2 	"/>
	<polygon id="XMLID_15_" class="st8" points="69.8,20.4 66.8,16.5 65.5,21.2 60.9,22.7 64.9,25.5 65,30.3 68.8,27.3 73.5,28.8 
		71.8,24.2 74.6,20.2 	"/>
</g>
</svg>
