<?xml version="1.0" encoding="utf-8"?>
<!-- Generator: Adobe Illustrator 23.0.1, SVG Export Plug-In . SVG Version: 6.00 Build 0)  -->
<svg version="1.1" id="Layer_1" xmlns="http://www.w3.org/2000/svg" xmlns:xlink="http://www.w3.org/1999/xlink" x="0px" y="0px"
	 viewBox="0 0 112.9 109.8" style="enable-background:new 0 0 112.9 109.8;" xml:space="preserve">
<style type="text/css">
	.st0{fill:#41443B;}
	.st1{fill:#EAA18F;}
	.st2{fill:#609933;}
	.st3{fill:#C43A2C;}
	.st4{fill:none;}
	.st5{fill:#EFB4AC;}
	.st6{clip-path:url(#SVGID_1_);fill:#40A1C1;}
	.st7{clip-path:url(#SVGID_1_);}
	.st8{fill:#C2DBE0;}
	.st9{fill:#BFDAE1;}
	.st10{fill:#D3E7E6;}
	.st11{opacity:0.15;clip-path:url(#SVGID_1_);}
	.st12{fill:#D7EBE2;}
	.st13{fill:#F6B657;}
	.st14{fill:#543412;}
	.st15{fill:#FFFBE4;}
	.st16{opacity:0.11;fill:#42443B;}
	.st17{fill:#D8ECE3;}
	.st18{fill:#F9B858;}
	.st19{fill:#F7C179;}
	.st20{fill:#41A2C2;}
	.st21{fill:none;stroke:#8DB9C5;stroke-miterlimit:10;}
	.st22{fill:#368499;}
</style>
<g>
	
		<ellipse id="XMLID_68_" transform="matrix(0.9821 -0.1882 0.1882 0.9821 -9.3224 11.5833)" class="st18" cx="56.3" cy="54.9" rx="26.5" ry="26.5"/>
	<path id="XMLID_66_" class="st18" d="M53.5,16.4c0,1.6,1.3,2.8,2.8,2.8c1.6,0,2.8-1.3,2.8-2.8V4.4c0-1.6-1.3-2.8-2.8-2.8
		c-1.6,0-2.8,1.3-2.8,2.8V16.4z"/>
	<path id="XMLID_34_" class="st18" d="M53.5,93.4v11.9c0,1.6,1.3,2.8,2.8,2.8c1.6,0,2.8-1.3,2.8-2.8V93.4c0-1.6-1.3-2.8-2.8-2.8
		C54.8,90.6,53.5,91.8,53.5,93.4z"/>
	<path id="XMLID_33_" class="st18" d="M37.1,24.4c0.5,0,1-0.1,1.4-0.4c1.3-0.8,1.8-2.5,1-3.9l-6-10.3c-0.8-1.3-2.5-1.8-3.9-1
		c-1.3,0.8-1.8,2.5-1,3.9l6,10.3C35.2,23.8,36.1,24.4,37.1,24.4z"/>
	<path id="XMLID_32_" class="st18" d="M74.2,85.8c-1.3,0.8-1.8,2.5-1,3.9l6,10.3c0.5,0.9,1.5,1.4,2.4,1.4c0.5,0,1-0.1,1.4-0.4
		c1.3-0.8,1.8-2.5,1-3.9l-6-10.3C77.2,85.5,75.5,85,74.2,85.8z"/>
	<path id="XMLID_31_" class="st18" d="M10.2,28.2c-0.8,1.3-0.3,3.1,1,3.9l10.3,6c0.4,0.3,0.9,0.4,1.4,0.4c1,0,1.9-0.5,2.4-1.4
		c0.8-1.3,0.3-3.1-1-3.9l-10.3-6C12.7,26.4,11,26.9,10.2,28.2z"/>
	<path id="XMLID_30_" class="st18" d="M101.4,77.7l-10.3-6c-1.3-0.8-3.1-0.3-3.9,1c-0.8,1.3-0.3,3.1,1,3.9l10.3,6
		c0.4,0.3,0.9,0.4,1.4,0.4c1,0,1.9-0.5,2.4-1.4C103.2,80.2,102.8,78.4,101.4,77.7z"/>
	<path id="XMLID_29_" class="st18" d="M20.6,54.9c0-1.6-1.3-2.8-2.8-2.8H5.9c-1.6,0-2.8,1.3-2.8,2.8c0,1.6,1.3,2.8,2.8,2.8h11.9
		C19.4,57.7,20.6,56.4,20.6,54.9z"/>
	<path id="XMLID_28_" class="st18" d="M106.8,52.1H94.8c-1.6,0-2.8,1.3-2.8,2.8c0,1.6,1.3,2.8,2.8,2.8h11.9c1.6,0,2.8-1.3,2.8-2.8
		C109.6,53.3,108.3,52.1,106.8,52.1z"/>
	<path id="XMLID_27_" class="st18" d="M21.6,71.7l-10.3,6c-1.3,0.8-1.8,2.5-1,3.9c0.5,0.9,1.5,1.4,2.4,1.4c0.5,0,1-0.1,1.4-0.4
		l10.3-6c1.3-0.8,1.8-2.5,1-3.9C24.7,71.4,22.9,70.9,21.6,71.7z"/>
	<path id="XMLID_26_" class="st18" d="M98.6,27.2l-10.3,6c-1.3,0.8-1.8,2.5-1,3.9c0.5,0.9,1.5,1.4,2.4,1.4c0.5,0,1-0.1,1.4-0.4
		l10.3-6c1.3-0.8,1.8-2.5,1-3.9C101.7,26.9,100,26.4,98.6,27.2z"/>
	<path id="XMLID_25_" class="st18" d="M34.6,86.8l-6,10.3c-0.8,1.3-0.3,3.1,1,3.9c0.4,0.3,0.9,0.4,1.4,0.4c1,0,1.9-0.5,2.4-1.4
		l6-10.3c0.8-1.3,0.3-3.1-1-3.9C37.1,85,35.4,85.5,34.6,86.8z"/>
	<path id="XMLID_24_" class="st18" d="M74.2,24c0.4,0.3,0.9,0.4,1.4,0.4c1,0,1.9-0.5,2.4-1.4l6-10.3c0.8-1.3,0.3-3.1-1-3.9
		c-1.3-0.8-3.1-0.3-3.9,1l-6,10.3C72.4,21.5,72.8,23.2,74.2,24z"/>
</g>
</svg>
