<?xml version="1.0" encoding="utf-8"?>
<!-- Generator: Adobe Illustrator 23.0.1, SVG Export Plug-In . SVG Version: 6.00 Build 0)  -->
<svg version="1.1" id="Layer_1" xmlns="http://www.w3.org/2000/svg" xmlns:xlink="http://www.w3.org/1999/xlink" x="0px" y="0px"
	 viewBox="0 0 103.3 92.8" style="enable-background:new 0 0 103.3 92.8;" xml:space="preserve">
<style type="text/css">
	.st0{fill:#41443B;}
	.st1{fill:#EAA18F;}
	.st2{fill:#609933;}
	.st3{fill:#C43A2C;}
	.st4{fill:none;}
	.st5{fill:#EFB4AC;}
	.st6{clip-path:url(#SVGID_1_);fill:#40A1C1;}
	.st7{clip-path:url(#SVGID_1_);}
	.st8{fill:#C2DBE0;}
	.st9{fill:#BFDAE1;}
	.st10{fill:#D3E7E6;}
	.st11{opacity:0.15;clip-path:url(#SVGID_1_);}
	.st12{fill:#D7EBE2;}
	.st13{fill:#F6B657;}
	.st14{fill:#543412;}
	.st15{fill:#FFFBE4;}
	.st16{opacity:0.11;fill:#42443B;}
	.st17{fill:#D8ECE3;}
	.st18{fill:#F9B858;}
	.st19{fill:#F7C179;}
	.st20{fill:#41A2C2;}
	.st21{fill:none;stroke:#8DB9C5;stroke-miterlimit:10;}
	.st22{fill:#368499;}
</style>
<g>
	<g>
		<path class="st8" d="M80.7,4C64.2,7.2,47.1,5.5,30.5,8.8c-3.1,0.6-30.2,8.6-20,14.2c2.3,1.3,5.5,1.4,8.1,1.8
			c4.3,0.6,8.7,0.9,13.1,1c9,0.2,18-0.2,26.9-0.5c8.2-0.3,16.6,0.1,24.7-0.9c3.6-0.5,9-2.1,8.7-6.7c-0.3-5.4-7.2-6.6-11.3-6.5
			c-7.4,0.2-14.9,1.6-22.2,2.6c-14.7,2.1-30.7,4.9-43.8,12.4c-3.1,1.8-7,5.3-3.8,8.9c3.7,4,13,3.7,17.9,3.5
			c8.3-0.3,16.6-1.9,24.8-2.9c9-1,18-1.7,27-2.4c3.2-0.2,10.3-1.1,9.3-5.9c-1.1-5.8-12.7-4.8-16.6-4.5c-8.5,0.8-16.5,3.8-24.4,7
			c-6.4,2.6-13.4,5.2-17.2,11.4c-0.6,1,0,2.2,1,2.5c14.4,4.3,29.9,4,44.1-1.2c1.8-0.7,1.5-3.3-0.5-3.4c-6-0.3-54-3.1-48.6,10.5
			c2.5,6.2,15.5,4.2,20.3,4.2c10.7,0,21.5-0.9,31.5-4.8c1.4-0.5,1.8-3,0-3.3c-7.5-1.3-15.1-1.3-22.5,0.3c-6.7,1.5-15.4,4.3-20,9.7
			c-2.9,3.4-3,8.4,1.2,10.8c2.9,1.6,7.3,1.4,10.5,1.4c4.5,0.1,8.9-0.4,13.3-1c1-0.2,1.6-1.7,1-2.5c-5.4-7.4-17.8-3.9-23.2,1.9
			c-8,8.6,7.5,12.5,13.6,12.6c2.2,0,8,0.4,8.5-3c0.5-3.7-5-4.1-7.3-4.3c-3-0.2-7.9-1.3-8.9,2.7c-0.6,2.3,0.7,5.3,1.4,7.5
			c0.9,3,2.1,6,3.3,8.9c0.9,2,3.8,0.3,3-1.7c-1.1-2.6-2.2-5.3-3-8.1c-0.3-0.9-1.8-4.7-1.4-5.7c1-1.9,7.1,1.1,8.2,0.1
			c-0.7,0.6-3.7,0.1-4.6,0.1c-2.3-0.1-4.5-0.5-6.7-1.2c-2.9-0.3-4.1-2.2-3.6-5.5c0.8-0.8,1.7-1.5,2.7-2c4-2.4,11.5-5.4,15.1-0.6
			c0.3-0.8,0.7-1.7,1-2.5c-5.6,0.8-11.4,1.2-17,0.7c-1.8-0.2-3.3-0.1-4.6-1.5c-1.5-0.7-1.6-1.7-0.4-3.1c0.1-1.3,0.7-2.3,1.8-2.9
			c1.8-1.7,4.3-2.9,6.6-4c9.6-4.5,20.7-5.6,31.2-3.8c0-1.1,0-2.2,0-3.3c-7.3,2.8-14.8,4-22.6,4.4c-6.9,0.4-15.6,1.3-22.4-0.3
			c-3.5-0.8-1.8-4.4,0.8-5.2c1.8-0.6,3.8-0.7,5.6-0.9c3.8-0.5,7.6-0.8,11.4-1c8.2-0.5,16.5-0.5,24.8-0.1c-0.2-1.1-0.3-2.2-0.5-3.4
			c-13.6,5-28.3,5.3-42.2,1.2c0.3,0.8,0.7,1.7,1,2.5c3-4.8,8.5-7.1,13.5-9.2c5.2-2.2,10.5-4.2,15.9-5.7c5.3-1.4,10.7-2.3,16.2-1.9
			c-1.5-0.1,4.3,0.3,4.5,0.7c1.4,2.6-1,2.5-2.3,2.7c-3.2,0.5-6.5,0.5-9.7,0.7c-11.8,0.9-23.5,2.4-35.2,3.9c-5,0.6-10.1,1.2-15.2,0.8
			c-2.1-0.2-10.5-0.2-7.4-5.1c1.1-1.7,6.6-3.3,8.4-4C33,22,43.1,19.7,53.3,18c5.6-0.9,11.3-1.6,16.9-2.3c2.3-0.3,4.6-0.6,7-0.8
			c1.5-0.1,2.9-0.3,4.4-0.3c1.3-0.1,2.6,0.1,3.8,0.4c3,2.9,3.4,4.6,1,5.1c-3.8,2.4-11.5,1.2-15.9,1.3c-6.3,0.2-12.5,0.4-18.8,0.6
			c-5.4,0.2-10.8,0.4-16.2,0.4c-3.1,0-6.3-0.1-9.4-0.3c-3-0.2-8.2,0.1-10.7-1.3c-1-0.5-2.8,0.3-2-1.9c0.2-0.6,3.5-2,4-2.3
			c2.7-1.3,5.6-2.4,8.5-3.2c5.7-1.6,11.6-2.4,17.5-2.9C56.1,9.5,69,9.8,81.6,7.3C83.8,6.9,82.9,3.6,80.7,4L80.7,4z"/>
	</g>
</g>
</svg>
