<?xml version="1.0" encoding="utf-8"?>
<!-- Generator: Adobe Illustrator 23.0.1, SVG Export Plug-In . SVG Version: 6.00 Build 0)  -->
<svg version="1.1" id="Layer_1" xmlns="http://www.w3.org/2000/svg" xmlns:xlink="http://www.w3.org/1999/xlink" x="0px" y="0px"
	 viewBox="0 0 268.2 148.7" style="enable-background:new 0 0 268.2 148.7;" xml:space="preserve">
<style type="text/css">
	.st0{fill:#41443B;}
	.st1{fill:#EAA18F;}
	.st2{fill:#609933;}
	.st3{fill:#C43A2C;}
	.st4{fill:none;}
	.st5{fill:#EFB4AC;}
	.st6{clip-path:url(#SVGID_1_);fill:#40A1C1;}
	.st7{clip-path:url(#SVGID_1_);}
	.st8{fill:#C2DBE0;}
	.st9{fill:#BFDAE1;}
	.st10{fill:#D3E7E6;}
	.st11{opacity:0.15;clip-path:url(#SVGID_1_);}
	.st12{fill:#D7EBE2;}
	.st13{fill:#F6B657;}
	.st14{fill:#543412;}
	.st15{fill:#FFFBE4;}
	.st16{opacity:0.11;fill:#42443B;}
	.st17{fill:#D8ECE3;}
	.st18{fill:#F9B858;}
	.st19{fill:#F7C179;}
	.st20{fill:#41A2C2;}
	.st21{fill:none;stroke:#8DB9C5;stroke-miterlimit:10;}
	.st22{fill:#368499;}
</style>
<g>
	<path d="M164.9,3.7c-0.6-0.1-10.5-2.2-14,5.7c-2.8,6.4,0.7,14.8,2.2,18.6c0.8,1.9,7.7,18.7,16,14.7c6.1-3,10.1-15.9,8.1-25.6
		C175.1,6.7,167.1,4.2,164.9,3.7z"/>
	<path d="M51.2,7.3c0.6-0.1,10.5-2.3,14,5.6c2.8,6.4-0.6,14.8-2.1,18.6c-0.8,1.9-7.6,18.8-15.9,14.8c-6.1-2.9-10.2-15.8-8.3-25.6
		C41,10.4,48.9,7.9,51.2,7.3z"/>
	<g>
		<g>
			<path class="st18" d="M146.1,67.1c-7.9-3.1-15.9-5.9-24-8.6c-6.4-2.1-13.1-4.1-20.1-4c-16,0.3-28.2,11.3-43.4,15.1
				c-7.8,1.9-16.2,1.9-24.3,2.8c-8.1,0.9-16.7,2.9-21.7,7.9c-2.5,2.4-4,5.3-4.9,8.3c-2,6.3-1.6,13.2,1.9,19.1s10.1,10.8,18.2,12.8
				c11.1,2.7,23-0.3,34.4-2.3c30.8-5.3,62.8-3.2,94.3-2s64,1.3,93.4-7.7c2.1-0.6,4.1-1.3,5.8-2.4c2.3-1.5,3.8-3.7,4.7-5.9
				c3.7-9.2-1.9-19.1-10-26.3c-3.2-2.9-6.9-5.5-11.3-7.1c-6.1-2.2-13.1-2.3-19.8-2.2c-14.4,0.2-28.7,1.2-42.9,3
				c-7.7,1-15.6,2.2-23.2,0.8c-2.7-0.5-5.3-1.3-8.1-1.5"/>
		</g>
		<g>
			<path class="st18" d="M193.2,118.6c-1.7,8.1-10.3,14.6-20.1,18.1c-9.8,3.5-20.7,4.3-31.4,5c-26,1.6-52.3,2.4-77.9-1.3
				c-2.9-0.4-5.8-0.9-8.4-2c-2.8-1.2-5-3-7.1-4.8c-4.7-4-9.3-8.2-13.7-12.5"/>
		</g>
	</g>
</g>
</svg>
