<?xml version="1.0" encoding="utf-8"?>
<!-- Generator: Adobe Illustrator 23.0.1, SVG Export Plug-In . SVG Version: 6.00 Build 0)  -->
<svg version="1.1" id="Layer_1" xmlns="http://www.w3.org/2000/svg" xmlns:xlink="http://www.w3.org/1999/xlink" x="0px" y="0px"
	 viewBox="0 0 133.4 70.9" style="enable-background:new 0 0 133.4 70.9;" xml:space="preserve">
<style type="text/css">
	.st0{fill:#41443B;}
	.st1{fill:#EAA18F;}
	.st2{fill:#609933;}
	.st3{fill:#C43A2C;}
	.st4{fill:none;}
	.st5{fill:#EFB4AC;}
	.st6{clip-path:url(#SVGID_1_);fill:#40A1C1;}
	.st7{clip-path:url(#SVGID_1_);}
	.st8{fill:#C2DBE0;}
	.st9{fill:#BFDAE1;}
	.st10{fill:#D3E7E6;}
	.st11{opacity:0.15;clip-path:url(#SVGID_1_);}
	.st12{fill:#D7EBE2;}
	.st13{fill:#F6B657;}
	.st14{fill:#543412;}
	.st15{fill:#FFFBE4;}
	.st16{opacity:0.11;fill:#42443B;}
	.st17{fill:#D8ECE3;}
	.st18{fill:#F9B858;}
	.st19{fill:#F7C179;}
	.st20{fill:#41A2C2;}
	.st21{fill:none;stroke:#8DB9C5;stroke-miterlimit:10;}
	.st22{fill:#368499;}
</style>
<g>
	<defs>
		<path id="SVGID_3_" d="M-31.9-20.1h-92.4c-16.7,0-30.2-13.5-30.2-30.2v-92.4c0-16.7,13.5-30.2,30.2-30.2h92.4
			c16.7,0,30.2,13.5,30.2,30.2v92.4C-1.7-33.6-15.2-20.1-31.9-20.1z"/>
	</defs>
	<clipPath id="SVGID_1_">
		<use xlink:href="#SVGID_3_"  style="overflow:visible;"/>
	</clipPath>
</g>
<g>
	<path id="XMLID_72_" class="st18" d="M69.6,33.1c-16,0-29.2,12.3-30.6,27.9h61.2C98.8,45.4,85.6,33.1,69.6,33.1z"/>
	<path id="XMLID_23_" class="st18" d="M66.8,6.1v13.7c0,1.6,1.3,2.8,2.8,2.8c1.6,0,2.8-1.3,2.8-2.8V6.1c0-1.6-1.3-2.8-2.8-2.8
		C68.1,3.3,66.8,4.6,66.8,6.1z"/>
	<path id="XMLID_22_" class="st18" d="M39.3,11.4c-1.3,0.8-1.8,2.5-1,3.9l6.8,11.8c0.5,0.9,1.5,1.4,2.4,1.4c0.5,0,1-0.1,1.4-0.4
		c1.3-0.8,1.8-2.5,1-3.9l-6.8-11.8C42.4,11.1,40.7,10.7,39.3,11.4z"/>
	<path id="XMLID_21_" class="st18" d="M32.9,39.4L21,32.6c-1.3-0.8-3.1-0.3-3.9,1c-0.8,1.3-0.3,3.1,1,3.9L30,44.3
		c0.4,0.3,0.9,0.4,1.4,0.4c1,0,1.9-0.5,2.4-1.4C34.7,41.9,34.2,40.2,32.9,39.4z"/>
	<path id="XMLID_20_" class="st18" d="M28.4,63.9c0-1.6-1.3-2.8-2.8-2.8H11.9c-1.6,0-2.8,1.3-2.8,2.8c0,1.6,1.3,2.8,2.8,2.8h13.7
		C27.1,66.7,28.4,65.4,28.4,63.9z"/>
	<path id="XMLID_19_" class="st18" d="M127.3,61.1h-13.7c-1.6,0-2.8,1.3-2.8,2.8c0,1.6,1.3,2.8,2.8,2.8h13.7c1.6,0,2.8-1.3,2.8-2.8
		C130.2,62.3,128.9,61.1,127.3,61.1z"/>
	<path id="XMLID_18_" class="st18" d="M109.2,44.3l11.8-6.8c1.3-0.8,1.8-2.5,1-3.9c-0.8-1.3-2.5-1.8-3.9-1l-11.8,6.8
		c-1.3,0.8-1.8,2.5-1,3.9c0.5,0.9,1.5,1.4,2.4,1.4C108.3,44.7,108.7,44.6,109.2,44.3z"/>
	<path id="XMLID_17_" class="st18" d="M90.2,28.2c0.4,0.3,0.9,0.4,1.4,0.4c1,0,1.9-0.5,2.4-1.4l6.8-11.8c0.8-1.3,0.3-3.1-1-3.9
		c-1.3-0.8-3.1-0.3-3.9,1l-6.8,11.8C88.4,25.7,88.9,27.4,90.2,28.2z"/>
</g>
</svg>
