<?xml version="1.0" encoding="utf-8"?>
<!-- Generator: Adobe Illustrator 23.0.1, SVG Export Plug-In . SVG Version: 6.00 Build 0)  -->
<svg version="1.1" id="Layer_1" xmlns="http://www.w3.org/2000/svg" xmlns:xlink="http://www.w3.org/1999/xlink" x="0px" y="0px"
	 viewBox="0 0 103.3 92.8" style="enable-background:new 0 0 103.3 92.8;" xml:space="preserve">
<style type="text/css">
	.st0{fill:#41443B;}
	.st1{fill:#EAA18F;}
	.st2{fill:#609933;}
	.st3{fill:#C43A2C;}
	.st4{fill:none;}
	.st5{fill:#EFB4AC;}
	.st6{clip-path:url(#SVGID_1_);fill:#40A1C1;}
	.st7{clip-path:url(#SVGID_1_);}
	.st8{fill:#C2DBE0;}
	.st9{fill:#BFDAE1;}
	.st10{fill:#D3E7E6;}
	.st11{opacity:0.15;clip-path:url(#SVGID_1_);}
	.st12{fill:#D7EBE2;}
	.st13{fill:#F6B657;}
	.st14{fill:#543412;}
	.st15{fill:#FFFBE4;}
	.st16{opacity:0.11;fill:#42443B;}
	.st17{fill:#D8ECE3;}
	.st18{fill:#F9B858;}
	.st19{fill:#F7C179;}
	.st20{fill:#41A2C2;}
	.st21{fill:none;stroke:#8DB9C5;stroke-miterlimit:10;}
	.st22{fill:#368499;}
</style>
<g>
	<g>
		<path class="st8" d="M20.5,44.7c1.8,6,3.5,11.9,5,18c1.2,4.7,2.2,9.6,4.4,13.9c4,7.8,13.7,14.5,22.7,14.1
			c7.6-0.4,12.9-8.5,6.4-14.2c-2.3-2-6.3-4.3-9.6-3.9c-3.4,0.4-3.3,2.9-3.3,5.6c-0.1,3.5,5.4,3.5,5.4,0c0-0.5-0.1-1.1-0.1-1.6
			c-1.1,1.1-1.1,1.7,0,1.8c0.6,0.1,1.1,0.4,1.6,0.7c2.3,1.1,2.8,1.2,1.8,3.8c-1.1,3-3,2.7-5.9,2c-5.4-1.3-10.7-4.8-13.6-9.6
			c-2.6-4.2-3.5-9.3-4.7-14c-1.5-6-3.1-12-5-18C24.7,39.9,19.4,41.4,20.5,44.7L20.5,44.7z"/>
	</g>
</g>
<g>
	<g>
		<path class="st8" d="M26.5,7.5c6.3,22.6,15.7,55.8,43.5,59.4c4,0.5,8.8,0.5,10.3-4.1c1.5-4.8-0.7-11.1-3.4-15
			c-2.2-3.2-6.4-6.5-10.5-4.5c-3.8,1.9-4.1,6.6-2,9.9c1.9,2.9,6.6,0.2,4.7-2.7c-2.5-3.8,2.3-0.8,3.3,0.4c1.3,1.6,2.1,3.5,2.5,5.5
			c0.3,1,0.4,2.1,0.4,3.2c0.5,1.7-0.2,2.5-2.1,2.1c-1.5,0.5-4-0.4-5.4-0.8c-6.9-1.8-12.8-6.1-17.4-11.5C40.2,37.5,35.8,20.7,31.7,6
			C30.8,2.7,25.5,4.1,26.5,7.5L26.5,7.5z"/>
	</g>
</g>
<g>
	<g>
		<path class="st8" d="M5.9,20.8c7,4.9,10.8,17.5,21.3,12.7c3.2-1.5,0.4-6.2-2.7-4.7c-4.2,1.9-6.5-3.4-8.6-6
			c-2.1-2.6-4.5-4.8-7.2-6.7C5.8,14,3,18.8,5.9,20.8L5.9,20.8z"/>
	</g>
</g>
<g>
	<g>
		<path class="st8" d="M44.8,6.2C50.6,14.7,56.9,23,64,30.5c4.8,5.1,13.1,13.4,20.9,9.6c7.1-3.4,7.3-12.6,3-18.3
			c-4.7-6.3-10.7-4-13.2,2.7c-1.2,3.3,4,4.7,5.2,1.4c1.7-4.5,4.7,0,5.3,2.7c1,5-3,8.1-7.6,6.2c-4.1-1.7-7.5-5.6-10.5-8.8
			C60.7,19,54.9,11.3,49.5,3.4C47.5,0.5,42.8,3.3,44.8,6.2L44.8,6.2z"/>
	</g>
</g>
<g>
	<g>
		<path class="st8" d="M84.3,49.5c1.6,1.1,3,2.4,4.2,4c0.9,1.2,1.7,2.6,2.8,3.6c2.5,2.2,5.7,2.2,8.6,0.8c3.1-1.6,0.4-6.3-2.7-4.7
			c-2.3,1.1-3.6-1.9-4.7-3.3c-1.5-2-3.3-3.6-5.4-4.9C84.1,42.9,81.4,47.6,84.3,49.5L84.3,49.5z"/>
	</g>
</g>
</svg>
